<svg width="1001" height="711" viewBox="0 0 1001 711" fill="none" xmlns="http://www.w3.org/2000/svg">
<path fill-rule="evenodd" clip-rule="evenodd" d="M186.17 0.645957C184.888 0.866087 182.076 2.63796 179.92 4.58304L176 8.11957V82.1213V156.123L191.25 155.874L206.5 155.625L206.757 92.2626L207.013 28.9011L209.257 28.4131C210.491 28.1451 306.225 28.036 422 28.1722L632.5 28.4185L632.769 48.4918L633.038 68.5652H649.019H665L664.959 40.3723C664.919 13.1573 664.841 12.0386 662.709 8.11957C661.072 5.11081 659.345 3.53472 656.038 2.02989L651.576 0L420.038 0.122696C292.692 0.190359 187.451 0.425826 186.17 0.645957ZM353.075 90.3248C348.506 91.1674 345.245 93.4643 343.013 97.4122C341.008 100.957 341 102.15 341 383.345C341 675.557 340.9 668.081 344.848 672.345C346.239 673.848 337.955 673.924 173.155 673.924H0H499.25H1000H913C865.15 673.924 826 673.731 826 673.495C826 673.258 826.898 671.736 827.996 670.111C829.961 667.204 829.993 665.5 829.996 561.378C829.998 503.199 829.853 455.598 829.673 455.598C829.493 455.598 822.63 461.692 814.423 469.14L799.5 482.683L799 565.898L798.5 649.114H586H373.5L373.248 383.654L372.997 118.193L585.048 117.964C718.001 117.819 797.454 118.053 798.05 118.591C798.635 119.119 799 149.414 799 197.514V275.58L808.75 266.97C814.112 262.235 821.087 256.426 824.25 254.061L830 249.762V174.907C830 92.3267 830.371 97.1398 823.646 92.5116L820.29 90.2021L588.194 89.9846C460.542 89.8646 354.738 90.0171 353.075 90.3248ZM231.598 118.244C228.41 121.662 228.327 123.697 231.25 126.748L233.5 129.097L275 129.06C297.825 129.041 316.857 129.021 317.294 129.017C317.73 129.014 317.955 126.068 317.794 122.47L317.5 115.929L275.848 115.694L234.196 115.458L231.598 118.244ZM9.841 178.038C6.19 179.503 3.267 182.022 1.493 185.23C0.189 187.588 0 205.367 0 325.862C0 434.837 0.262 464.096 1.25 465.235C5.584 470.231 9.262 472.662 13.257 473.171C15.591 473.469 85 473.594 167.5 473.451L317.5 473.19V459.658V446.125L174.75 445.897L32 445.668V325.685V205.702L174.75 205.473L317.5 205.245V191.261V177.277L165 177.124C49.415 177.007 11.856 177.228 9.841 178.038ZM460.469 186.806C450.853 189.329 447.043 200.78 453.203 208.641C457.509 214.136 449.257 213.815 585.986 213.815C703.05 213.815 711.244 213.715 713.785 212.248C719.698 208.835 721 206.523 721 199.44C721 194.295 720.77 193.76 717.156 190.499C714.984 188.54 711.886 186.774 710.031 186.44C705.045 185.54 463.944 185.894 460.469 186.806ZM950.322 220.606C941.394 222.777 935.952 225.655 927.838 232.501C920.845 238.401 919.749 239.018 917.874 238.113C914.281 236.379 901.713 236.943 893.745 239.199C859.484 248.896 810.174 288.545 784.908 326.711C777.536 337.848 772.874 348.836 772.234 356.584C771.735 362.632 771.749 362.674 774.286 362.674C777.62 362.674 786.241 354.082 787.891 349.115C789.659 343.79 797.482 330.71 803.792 322.527C825.356 294.563 859.931 266.37 887.094 254.601C896.183 250.663 906.12 247.952 907.876 248.931C908.513 249.286 875.753 279.466 829.447 321.182L749.923 392.824L778.76 418.839C797.862 436.072 808.086 444.682 809.048 444.344C809.847 444.064 851.72 406.593 902.101 361.077C967.937 301.598 994.196 277.306 995.46 274.712C996.427 272.727 997.844 269.924 998.609 268.483C1000.26 265.368 1000.6 246.293 999 246.293C998.45 246.293 998 245.559 998 244.661C998 242.096 991.335 232.614 987.227 229.336C982.137 225.276 975.254 222.18 967.769 220.589C960.151 218.968 957.046 218.971 950.322 220.606ZM116.529 246.118C116.238 246.379 116 250.376 116 254.998V263.401L113.25 263.952C104.069 265.793 92.877 273.374 89.593 279.976C83.267 292.693 85.599 306.715 95.634 316.294C100.814 321.24 106.131 324.32 120.987 330.98C138.951 339.032 145.472 343.076 147.953 347.7C153.708 358.426 147.299 369.469 133.168 373.174C126.818 374.84 122.407 374.397 116.076 371.457C110.949 369.078 108.103 365.32 106.852 359.281C106.382 357.011 105.778 354.956 105.51 354.714C105.119 354.36 92.316 354.215 86.134 354.493C84.045 354.587 85.664 365.565 88.628 371.412C93.073 380.18 100.079 385.543 110.858 388.431L116 389.809V397.471V405.132L128.118 404.879L140.237 404.625L140.368 397.058C140.515 388.641 139.987 389.289 149.334 386.066C159.771 382.469 167.116 375.025 171.006 364.105C173.102 358.22 171.756 347.318 168.109 340.634C162.789 330.884 156.479 326.4 132.944 315.647C125 312.018 116.611 307.481 114.303 305.566C105.791 298.509 105.255 289.836 112.922 283.249C123.907 273.812 144.358 277.397 147.937 289.385C149.294 293.935 150.378 294.297 161.503 293.926L169.5 293.658L169.348 289.477C169.169 284.547 166.341 278.368 162.072 273.574C158.716 269.807 150.221 264.803 145.5 263.815C140.421 262.75 140 261.988 140 253.852C140 249.695 139.662 246.242 139.25 246.179C136.65 245.781 116.961 245.728 116.529 246.118ZM247.103 264.69C244.125 267.549 244.546 272.097 248 274.386C250.301 275.911 253.107 276.047 283.261 276.101C301.279 276.134 316.466 275.912 317.011 275.609C317.555 275.305 318 272.239 318 268.795V262.533H283.674H249.349L247.103 264.69ZM415.077 273.89C411.197 276.836 410.959 280.621 414.455 283.774L416.909 285.989H585.52C693.591 285.989 754.788 285.672 755.961 285.106C756.967 284.621 758.279 282.956 758.877 281.408C760.115 278.206 759.134 275.712 755.633 273.153C753.631 271.691 743.184 271.593 585.827 271.574L418.153 271.554L415.077 273.89ZM247.174 320.555C245.94 321.74 245 323.813 245 325.347C245 328.227 248.115 331.983 250.539 332.026C251.343 332.04 266.738 332.064 284.75 332.08L317.5 332.108L317.792 325.288L318.084 318.467H283.716H249.349L247.174 320.555ZM416.775 328.891C411.6 331.433 410.435 336.674 414.314 339.963L416.629 341.924H584.346C743.197 341.924 752.092 341.84 752.622 340.345C753.391 338.174 755.038 334.596 756.204 332.562C756.917 331.319 756.744 330.481 755.552 329.404C754.069 328.067 739.483 327.923 586.714 327.746C440.516 327.577 419.158 327.721 416.775 328.891ZM414.455 386.541C411.436 389.264 411.261 393.194 414.039 395.884L416.078 397.859H564.146H712.215L718.16 392.671C721.43 389.818 724.547 386.773 725.088 385.905C726.022 384.405 718.417 384.326 571.49 384.326H416.909L414.455 386.541ZM704.764 433.269C666.834 467.264 657.609 476.084 644.613 490.783C622.499 515.793 606.426 539.407 596.885 560.908C589.331 577.93 587.765 586.003 591.5 588.659C599.041 594.022 637.548 579.447 674.5 557.244C686.808 549.848 710.238 532.829 721.786 522.898C743.644 504.098 796 456.481 796 455.4C796 454.264 740.107 403.272 738.861 403.272C738.516 403.272 723.173 416.77 704.764 433.269ZM416.5 441.351C411.726 443.821 410.695 448.149 413.965 451.989L415.886 454.245L532.602 454.481L649.318 454.718L656.159 448.423C659.922 444.96 663 441.707 663 441.194C663 439.8 419.197 439.955 416.5 441.351ZM176 536.355V578.319L178.25 581.454C182.593 587.505 179.884 587.287 251.121 587.315C286.53 587.33 316.074 587.335 316.776 587.328C317.767 587.318 317.99 584.237 317.776 573.557L317.5 559.799L262.25 559.566L207 559.332V526.862V494.391H191.5H176V536.355ZM231.924 510.504C230.238 511.736 229.6 513.133 229.6 515.592C229.6 518.052 230.238 519.448 231.924 520.681C234.129 522.291 236.392 522.366 275.874 522.143L317.5 521.908V515.592V509.277L275.874 509.042C236.392 508.819 234.129 508.894 231.924 510.504ZM519.389 549.762C511.192 552.463 507.129 558.775 506.264 570.149C505.085 585.671 512.088 598.511 523.787 602.28C536.96 606.522 551.323 600.548 555.069 589.268C556.832 583.957 558.375 585.774 559 593.898C559.473 600.049 559.636 600.411 562.043 600.664C564.764 600.951 567.962 598.923 569.843 595.72C571.548 592.816 571.258 590.924 569.107 590.924C567.141 590.924 566 589.266 566 586.409C566 585.495 564.835 583.498 563.411 581.972C561.114 579.509 560.219 579.196 555.47 579.196C549.255 579.196 548.605 579.799 548.344 585.804C547.892 596.232 537.771 601.294 527.147 596.405C518.391 592.375 515.059 586.152 514.858 573.45C514.734 565.656 515.046 563.677 516.974 560.01C519.192 555.792 523.492 552.111 526.154 552.15C526.894 552.161 528.625 552.964 530 553.935C534.691 557.245 543.558 555.325 539.246 551.932C538.286 551.176 536.517 550.1 535.316 549.539C532.592 548.27 523.532 548.397 519.389 549.762ZM499.25 614.076C497.237 614.809 497.735 619.602 499.934 620.664C502.81 622.053 631.062 621.944 634.453 620.55C637.54 619.282 637.89 615.776 635.066 614.412C633.101 613.464 501.825 613.138 499.25 614.076Z" fill="black"/>
</svg>
