<svg width="421" height="525" viewBox="0 0 421 525" fill="none" xmlns="http://www.w3.org/2000/svg">
<path fill-rule="evenodd" clip-rule="evenodd" d="M7.83301 2.22301C6.48201 4.15101 6.276 10.15 6.276 47.5C6.276 84.85 6.48201 90.849 7.83301 92.777L9.38901 95H49.882C92.45 95 95.006 95.248 96.655 99.545C97.675 102.203 97.361 106.511 96.026 108.179C95.339 109.037 80.601 119.333 63.276 131.057C45.951 142.782 27.781 155.096 22.898 158.422C6.28499 169.738 1.384 177.944 0.507004 195.908L0 206.316L24.888 189.483C38.576 180.225 56.526 168.068 64.776 162.467C115.17 128.254 130.499 118 131.252 118C131.717 118 148 128.765 167.437 141.923C186.873 155.081 216.225 174.94 232.663 186.055L262.55 206.265L262.043 195.882C260.982 174.119 257.588 170.097 217.776 143.425C180.834 118.675 171.024 111.882 169.558 110.035C168.057 108.145 167.917 102.539 169.306 99.945C171.884 95.126 173.196 95 220.67 95H265.163L266.719 92.777C268.07 90.849 268.276 84.829 268.276 47.277C268.276 5.33299 268.214 3.938 266.276 2C264.297 0.021 262.943 0 136.833 0H9.38901L7.83301 2.22301ZM98.366 25.371C114.814 31.25 119.817 53.305 107.497 65.625C102.463 70.659 97.678 72.505 89.776 72.461C81.652 72.415 76.379 70.159 71.554 64.664C60.524 52.101 64.825 33.075 80.276 26.081C85.425 23.75 93 23.453 98.366 25.371ZM141.746 25.553C146.31 27.718 149.059 32.986 147.459 36.498C145.811 40.115 141.347 39.665 139.451 35.692C138.4 33.488 137.536 32.95 135.443 33.192C133.39 33.429 132.705 34.118 132.466 36.182C132.195 38.528 133.07 39.467 139.45 43.682C145.489 47.671 147.07 49.296 148.644 53.127C151.013 58.896 150.29 63.702 146.433 67.832C142.522 72.019 136.5 73.683 131.109 72.068C121.155 69.086 116.312 57.176 124.649 56.181C126.877 55.916 127.56 56.435 128.761 59.31C130.814 64.225 135.804 65.642 139.447 62.345C143.242 58.911 141.247 54.995 133.276 50.232C124.942 45.251 121.429 38.725 123.575 32.215C125.889 25.199 134.413 22.073 141.746 25.553ZM29.076 26.2C29.804 26.928 30.276 30.467 30.276 35.2V43H38.776H47.276V35.934C47.276 27.828 48.397 25 51.611 25C56.037 25 56.276 26.204 56.276 48.5C56.276 70.272 55.972 72 52.147 72C48.43 72 47.276 69.259 47.276 60.429V52H38.776H30.276V60.8C30.276 70.066 29.499 72 25.776 72C21.535 72 21.276 70.647 21.276 48.5C21.276 26.353 21.535 25 25.776 25C26.931 25 28.416 25.54 29.076 26.2ZM184.076 26.2C185.913 28.037 185.504 31.808 183.342 32.965C182.278 33.534 179.803 34 177.842 34H174.276V51.8C174.276 70.659 173.962 72 169.551 72C165.856 72 165.156 68.273 165.481 50.315L165.776 33.997L162.46 33.999C157.954 34 155.276 32.385 155.276 29.665C155.276 25.517 156.938 25 170.276 25C178.743 25 183.27 25.394 184.076 26.2ZM221.076 26.2C222.913 28.037 222.504 31.808 220.342 32.965C219.278 33.534 214.553 34 209.842 34H201.276V38V42H210.076C219.106 42 221.276 42.8 221.276 46.129C221.276 49.846 218.535 51 209.705 51H201.276V57V63H210.205C219.664 63 222.276 64.09 222.276 68.036C222.276 71.155 218.999 72 206.898 72C191.533 72 192.276 73.177 192.276 48.843C192.276 38.551 192.715 28.976 193.251 27.565L194.226 25H207.051C215.693 25 220.267 25.391 221.076 26.2ZM238.241 26.934C238.838 28.051 239.276 36.083 239.276 45.934V63H246.205C253.231 63 256.276 64.361 256.276 67.5C256.276 71.016 253.353 72 242.905 72C236.282 72 232.253 71.577 231.476 70.8C229.777 69.101 229.777 27.899 231.476 26.2C233.313 24.363 237.084 24.772 238.241 26.934ZM81.586 35.077C77.933 37.417 74.276 44.211 74.276 48.658C74.276 53.216 78.314 60.015 82.285 62.145C86.631 64.475 92.739 64.518 97.256 62.248C107.705 56.999 108.158 41.166 98.035 34.995C93.63 32.309 85.847 32.348 81.586 35.077ZM103.776 159.498C78.903 176.437 68.734 183.321 24.01 213.495L8.244 224.131L8.50999 311.48L8.776 398.828L11.785 403.11C13.607 405.702 16.753 408.398 19.758 409.945L24.723 412.5H212.249H399.776L403.871 410.309C409.164 407.476 413.892 402.046 415.216 397.277C415.867 394.932 416.267 378.305 416.27 353.43L416.276 313.361L408.026 307.781C403.488 304.712 384.105 291.582 364.952 278.603L330.128 255.005L308.452 269.668C296.53 277.732 279.913 289.009 271.526 294.728L256.276 305.125V293.313V281.5L271.769 271C280.291 265.225 296.748 254.052 308.342 246.171C320.677 237.785 330.019 232.071 330.864 232.395C331.657 232.7 339.275 237.685 347.791 243.474C356.308 249.264 370.363 258.798 379.026 264.662C387.689 270.526 400.266 279.076 406.976 283.662C413.687 288.248 419.424 292 419.726 292C420.029 292 420.276 289.317 420.276 286.038C420.276 277.676 417.237 270.122 411.95 265.343C409.612 263.229 394.987 252.95 379.451 242.5C363.915 232.05 346.46 220.235 340.663 216.245L330.122 208.991L309.949 222.667C298.854 230.189 282.238 241.467 273.026 247.73L256.276 259.116L256.269 242.308L256.262 225.5L234.771 211C222.951 203.025 206.986 192.225 199.293 187C156.327 157.818 131.372 141.006 131.092 141.056C130.918 141.086 118.626 149.385 103.776 159.498ZM68.056 223.612L68.335 235.723L72.495 237.599C77.433 239.825 83.813 244.984 87.038 249.356L89.357 252.5L133.282 253C172.071 253.442 177.396 253.69 178.831 255.126C179.993 256.288 180.467 258.637 180.497 263.376L180.538 270H189.907H199.276V246.434C199.276 232.102 199.682 222.111 200.311 220.934C201.151 219.365 202.425 219.003 207.061 219.015C210.204 219.024 213.451 219.457 214.276 219.979C215.593 220.811 215.739 230.493 215.474 299.214C215.146 384.298 215.384 380.868 209.659 383.045C208.144 383.62 177.859 384 133.433 384C51.654 384 56.598 384.409 53.67 377.401C51.727 372.75 51.579 214.097 53.516 212.16C54.317 211.359 57.064 211.022 61.266 211.21L67.776 211.5L68.056 223.612ZM68.943 289.667C68.576 290.033 68.276 300.151 68.276 312.15V333.966L73.239 336.481C79.176 339.49 84.119 343.68 87.381 348.469L89.776 351.986L132.803 351.993C181.509 352.001 180.276 351.816 180.276 359.122C180.276 366.043 181.364 367 189.229 367C200.331 367 199.276 371.161 199.276 327.393V289H134.443C98.784 289 69.309 289.3 68.943 289.667ZM306.276 329C308.088 330.812 308.276 332.333 308.276 345.171C308.276 363.947 309.21 363 290.692 363C271.584 363 271.88 363.324 272.44 343C272.888 326.757 272.607 327 290.887 327C302.943 327 304.475 327.199 306.276 329ZM388.415 328.909C390.649 330.716 390.793 331.536 391.099 344.181C391.4 356.599 391.271 357.737 389.277 360.272L387.131 363H373.032C354.353 363 355.276 363.908 355.276 345.536C355.276 331.213 355.785 328.942 359.276 327.694C360.101 327.399 366.464 327.122 373.415 327.079C384.436 327.01 386.357 327.244 388.415 328.909ZM142.276 513C142.276 525.017 142.299 525.136 144.526 524.82C146.506 524.538 146.771 523.93 146.733 519.75L146.689 515H152.483H158.276V520C158.276 524.333 158.543 525 160.276 525C162.165 525 162.276 524.333 162.276 513C162.276 501.667 162.165 501 160.276 501C158.543 501 158.276 501.667 158.276 506V511H152.831H147.386L147.081 506.25C146.821 502.197 146.446 501.453 144.526 501.18C142.299 500.864 142.276 500.983 142.276 513ZM175.276 501.704C172.23 502.812 168.283 507.446 167.689 510.61C166.238 518.344 171.728 524.989 179.576 524.996C187.086 525.004 192.287 519.794 192.269 512.282C192.261 508.933 189.261 504.115 186.086 502.353C183.743 501.052 178.012 500.708 175.276 501.704ZM198.731 503.455C194.081 508.104 196.615 513.049 204.689 515.082C209.626 516.326 210.976 518.157 208.662 520.471C206.766 522.367 206.099 522.371 201.638 520.507C197.894 518.942 196.276 519.223 196.276 521.438C196.276 523.423 201.452 525.169 206.288 524.814C209.595 524.572 211.044 523.871 212.62 521.752C215.878 517.37 214.098 513.992 207.253 511.567C201.395 509.492 200.161 508.464 200.976 506.341C201.561 504.815 207.035 504.562 209.242 505.958C210.677 506.865 213.276 505.628 213.276 504.038C213.276 502.766 208.282 501 204.683 501C202.302 501 200.401 501.784 198.731 503.455ZM216.943 501.667C215.057 503.552 216.505 505 220.276 505H224.276V515C224.276 524.333 224.409 525 226.276 525C228.143 525 228.276 524.333 228.276 515V505H232.276C235.609 505 236.276 504.667 236.276 503C236.276 501.143 235.609 501 226.943 501C221.809 501 217.309 501.3 216.943 501.667ZM240.276 513V525H249.276C257.609 525 258.276 524.852 258.276 523C258.276 521.19 257.609 521 251.276 521H244.276V518V515H250.276C255.609 515 256.276 514.778 256.276 513C256.276 511.222 255.609 511 250.276 511H244.276V508V505H251.276C257.609 505 258.276 504.81 258.276 503C258.276 501.148 257.609 501 249.276 501H240.276V513ZM263.276 513V525H271.776C279.609 525 280.276 524.843 280.276 523C280.276 521.205 279.609 521 273.776 521H267.276V511C267.276 501.667 267.143 501 265.276 501C263.387 501 263.276 501.667 263.276 513ZM184.262 505.992C186.891 507.4 188.585 513.058 187.349 516.308C185.897 520.127 181.266 522.241 177.345 520.874C173.666 519.592 172.276 517.365 172.276 512.754C172.276 506.561 178.628 502.977 184.262 505.992Z" fill="black"/>
</svg>
