<svg width="798" height="975" viewBox="0 0 798 975" fill="none" xmlns="http://www.w3.org/2000/svg">
<path fill-rule="evenodd" clip-rule="evenodd" d="M391.395 0.617912C314.891 8.53791 243.928 42.2939 189.852 96.4889C146.132 140.306 117.18 191.841 103.302 250.548C101.149 259.656 94.8946 292.429 94.8946 294.603C94.8946 295.025 83.0826 295.55 68.6446 295.77C49.3016 296.065 41.6746 296.526 39.6596 297.521C37.0146 298.827 32.8946 305.631 32.8946 308.693C32.8946 311.994 62.2086 359.123 90.9876 402.091C113.641 435.913 117.022 439.564 125.696 439.564C135.682 439.564 137.339 437.713 169.555 390.564C199.196 347.185 220.897 312.502 220.891 308.52C220.886 304.956 217.488 299.934 213.689 297.877C210.844 296.336 207.072 296.044 186.026 295.736L161.658 295.379L162.335 289.222C166.563 250.823 188.477 199.894 215.331 166.064C252.672 119.021 301.782 87.6579 362.622 72.0019C380.43 67.4189 397.169 66.1479 429.895 66.8939C457.769 67.5299 468.854 68.8429 486.846 73.6429C548.514 90.0949 603.278 129.202 639.813 182.875C644.576 189.873 647.717 193.564 648.907 193.564C651.686 193.564 658.159 185.518 662.896 176.176C666.972 168.138 667.188 167.253 667.934 155.576C668.362 148.866 668.361 138.259 667.932 132.006C667.245 121.99 666.739 119.77 663.682 113.351C654.035 93.0909 627.159 69.2569 587.1 45.4369C536.102 15.1119 485.645 1.17491 422.895 0.0789108C410.52 -0.137089 396.345 0.105912 391.395 0.617912ZM407.952 123.639C398.329 125.344 396.912 128.41 396.895 147.564C396.889 154.439 396.428 161.705 395.871 163.711C394.895 167.226 394.596 167.421 387.626 169.104C354.158 177.188 333.225 192.086 321.079 216.467L316.395 225.869L316.056 245.01C315.861 256.031 316.177 266.678 316.8 270.108C320.14 288.482 336.258 306.442 361.895 320.355C372.815 326.281 385.102 331.484 404.895 338.563C431.188 347.967 441.691 353.282 449.356 361.062C458.612 370.455 460.409 374.713 460.334 387.064C460.281 395.777 459.916 397.854 457.498 403.201C451.314 416.879 439.738 422.53 417.855 422.552C399.636 422.571 387.156 418.097 378.465 408.431C373.181 402.553 371.112 398.364 368.454 388.16C365.297 376.042 365.53 376.142 339.451 375.716C305.332 375.16 303.168 376.12 304.186 391.36C305.298 408.009 311.789 422.965 323.211 435.195C331.72 444.306 339.978 450.327 351.144 455.56C359.615 459.529 379.993 465.856 388.336 467.107C396.325 468.305 396.316 468.285 396.888 486.775C397.466 505.447 398.233 507.686 404.718 509.629C409.749 511.136 440.543 510.49 443.53 508.814C446.577 507.105 447.087 504.203 447.779 484.649L448.395 467.234L457.395 465.007C473.43 461.04 483.633 456.58 495.727 448.251C505.033 441.841 511.802 434.247 516.777 424.635C523.243 412.141 525.067 404.911 525.637 389.514C526.235 373.372 524.364 364.01 517.955 351.064C506.308 327.537 486.219 313.99 436.395 296.064C398.653 282.486 385.863 273.58 381.234 257.659C376.604 241.73 385.136 221.579 399.043 215.596C406.176 212.527 420.638 211.782 430.895 213.954C445.127 216.968 455.452 227.422 459.725 243.142C462.298 252.608 464.427 255.751 468.986 256.815C470.861 257.253 482.295 257.699 494.395 257.807C518.432 258.021 520.922 257.563 523.821 252.391C525.087 250.132 525.145 248.345 524.198 240.839C521.955 223.068 515.616 209.407 503.953 197.202C492.147 184.85 480.419 177.903 459.733 171.01L448.895 167.399L448.852 162.231C448.754 150.601 447.028 130.893 445.891 128.424C445.222 126.972 443.487 125.222 442.035 124.533C438.69 122.948 415.316 122.335 407.952 123.639ZM693.895 208.651C690.714 209.833 685.997 216.48 651.384 268.564C615.158 323.075 608.894 333.169 608.899 337.029C608.904 341.005 612.232 346.361 615.461 347.589C616.872 348.126 628.986 348.564 642.401 348.564C656.656 348.564 667.02 348.957 667.362 349.511C668.334 351.083 664.957 371.222 661.381 385.182C643.259 455.922 594.161 516.766 527.432 551.178C485.729 572.683 446.019 581.706 399.485 580.25C373.717 579.444 356.276 576.588 331.835 569.173C303.133 560.465 272.333 544.361 246.895 524.759C227.799 510.045 203.443 483.727 189.405 462.64C185.542 456.837 181.622 451.943 180.694 451.764C176.918 451.037 164.228 473.472 161.375 485.916C159.358 494.711 159.365 509.463 161.389 518.212C164.731 532.655 174.286 548.117 187.646 560.7C225 595.883 277.516 623.832 332.24 637.65C356.189 643.698 386.387 646.233 422.395 645.218C448.221 644.491 459.222 643.377 474.895 639.905C524.632 628.884 572.057 606.435 610.895 575.528C624.679 564.56 654.236 534.933 665.231 521.064C687.837 492.55 705.19 461.146 716.392 428.479C722.624 410.305 726.11 396.847 730.874 372.564C735.021 351.429 735.753 349.644 740.336 349.499C775.298 348.397 789.887 347.629 791.99 346.78C795.841 345.224 797.895 342.759 797.895 339.692C797.895 335.718 776.186 300.551 742.567 250.064C719.821 215.906 715.374 209.926 711.778 208.673C707.994 207.354 697.42 207.341 693.895 208.651ZM241.794 687.524C226.413 691.419 205.082 701.044 169.662 720.074L152.929 729.064L153.162 834.54L153.395 940.017L163.395 942.256C168.895 943.488 191.17 948.304 212.895 952.958L252.395 961.421L320.895 964.199C423.239 968.349 440.885 967.957 462.752 961.049C479.293 955.824 486.59 952.444 574.552 909.254L628.708 882.662L674.552 849.971C723.881 814.794 764.694 784.634 771.683 778.192C777.891 772.469 779.236 768.838 779.322 757.564C779.388 748.977 779.136 747.623 776.7 743.48C773.149 737.44 766.919 731.922 760.151 728.823C753.336 725.703 748.613 726.079 736.743 730.687C728.715 733.803 679.56 758.285 608.828 794.397L575.262 811.534L555.828 816.509C532.319 822.528 490.757 832.128 466.895 837.051C423.96 845.909 410.379 845.839 373.395 836.569C350.316 830.784 334.185 825.562 331.389 822.971C327.858 819.699 327.211 815.959 329.617 812.727C332.862 808.366 338.899 808.667 365.727 814.527C392.436 820.361 410.492 823.551 416.848 823.559C428.546 823.573 514.72 802.912 546.601 792.45C556.844 789.088 560.414 786.075 564.121 777.667C567.03 771.069 567.732 755.011 565.463 746.993C563.403 739.719 556.138 728.694 551.119 725.229C543 719.622 540.534 719.059 524.395 719.13C510.89 719.19 506.155 719.755 476.895 724.797C459.02 727.877 436.481 731.582 426.809 733.03L409.223 735.663L394.221 730.183C367.474 720.413 300.822 696.946 284.395 691.515C270.394 686.887 267.208 686.187 258.895 685.913C251.964 685.685 247.339 686.12 241.794 687.524ZM15.7146 687.448C11.2436 687.86 8.10263 688.757 6.21463 690.16C0.288634 694.563 0.539635 689.196 0.122635 820.064C-0.270365 943.27 0.147635 962.249 3.36663 967.162C6.96463 972.652 8.22163 972.795 62.2576 973.826L112.121 974.777L118.008 968.952L123.895 963.127V828.967V694.808L118.275 690.936L112.655 687.064L67.5246 686.948C42.7026 686.884 19.3886 687.109 15.7146 687.448ZM73.5986 726.75C83.1606 733.077 84.6526 750.34 76.3166 758.202C68.9836 765.118 57.7486 766.139 50.0836 760.586C45.5276 757.286 40.8826 748.564 40.9166 743.376C40.9606 736.664 46.1266 729.126 53.3946 725.168C58.1226 722.593 68.5516 723.409 73.5986 726.75Z" fill="black"/>
</svg>
