<svg width="1001" height="969" viewBox="0 0 1001 969" fill="none" xmlns="http://www.w3.org/2000/svg">
<path fill-rule="evenodd" clip-rule="evenodd" d="M531.748 1.88201C524.058 4.36401 520.213 6.53001 515.049 11.29C509.627 16.288 506.831 21.503 506.053 28.068C505.732 30.781 505.319 33 505.135 33C504.951 33 501.357 31.632 497.15 29.961L489.5 26.922L482.21 31.961C478.201 34.732 474.693 37 474.414 37C474.135 37 470.191 34.696 465.651 31.88L457.396 26.76L450.322 27.258C441.592 27.872 436.794 29.493 420.207 37.427C341.149 75.242 286.477 134.325 275.554 193.753C273.657 204.074 273.388 209.202 273.338 236C273.277 268.353 274.281 281.796 279.35 316.5C283.433 344.462 283.471 342.069 278.895 345.167C276.102 347.057 273.979 349.817 271.602 354.65L268.248 361.467L268.371 375.984C268.501 391.293 268.34 390.427 276.196 418C284.853 448.381 292.406 467.217 300.381 478.318C302.359 481.071 304.998 486.288 306.245 489.912C314.677 514.402 327.848 540.732 343.019 563.424L349.086 572.5L349.224 587.5L349.361 602.5L354.636 615.5C362.337 634.48 385.12 679.955 396.476 699.01C409.671 721.15 424.543 742.918 437.706 759.357L448.557 772.909L443.403 770.014C416.17 754.72 381.123 776.1 345.639 829.655C341.574 835.79 337.757 841.626 337.158 842.625C336.284 844.079 335.444 841.165 332.931 827.97C320.909 764.854 313.179 708.846 312.058 676.75C311.717 666.987 311.299 659 311.128 659C310.957 659 307.089 661.422 302.532 664.383C271.292 684.683 223.701 705.461 155.603 728.531C140.228 733.74 123.058 740.171 117.448 742.822C91.439 755.11 65.437 774.72 54.235 790.496C39.336 811.477 20.356 848.077 6.87199 881.829L0.747986 897.159V937.579V917.369L202 968.725H470.5H832.5L1000.75 937.579V897.159L994.618 881.829C983.376 853.715 971.154 828.933 957.099 805.754C948.039 790.813 944.354 785.922 936.085 777.86C914.179 756.506 889.797 742.986 848.248 729.156C788.149 709.151 732.331 685.202 703.585 667.089C698.271 663.74 693.728 661 693.49 661C693.253 661 692.771 666.962 692.419 674.25C691.156 700.455 686.408 737.879 678.255 785.9C671.841 823.678 668.599 840.272 667.817 839.325C667.442 838.871 663.248 832.65 658.496 825.5C621.545 769.901 585.67 749.542 557.807 768.36L553.366 771.359L559.618 763.43C577.08 741.283 596.632 712.77 612.028 687C624.163 666.687 643.547 628.063 650.603 610.136L655.863 596.772L655.666 582.554L655.469 568.337L664.973 555.918C682.581 532.909 694.243 513.772 701.871 495.368C704.121 489.941 706.972 484.375 708.207 483C717.314 472.864 726.614 452.147 733.793 426C735.379 420.225 738.015 410.907 739.651 405.293C747.155 379.547 746.358 360.533 737.277 348.626L734.678 345.219L737.679 334.36C750.553 287.766 753.537 237.649 745.714 199.392C741.026 176.466 731.43 154.262 718.748 137C714.91 131.775 709.758 124.477 707.299 120.781C698.382 107.379 682.077 92.335 665.227 81.963C648.248 71.511 621.225 60.873 599.248 55.988C587.835 53.451 580.137 49.594 569.354 41.01C556.748 30.975 545.513 16.919 540.547 4.97001C539.411 2.23601 538.204 0.0240125 537.865 0.0540125C537.526 0.0830125 534.773 0.906012 531.748 1.88201Z" fill="black"/>
</svg>
